# xmcd
#
# Track frame offsets: 
#        150
#        14822
#        35725
#        54800
#        71682
#        92738
#        112354
#        125401
#        140718
#        154543
#        171790
#        189703
#        201084
#        220815
#        236815
#        257688
#        278502
#        298591
#        319714
#
# Disc length: 4488 seconds
#
# Revision: 3
# Processed by: cddbd v1.5.2PL0 Copyright (c) Steve Scherf et al.
# Submitted via: ExactAudioCopy v1.1
#
DISCID=25118613
DTITLE=Gladys Knight and The Pips - The Best Of Gladys Knight and The Pips
DYEAR=2005
DGENRE=Vocal
TTITLE0=Baby Don't Change Your Mind
TTITLE1=The Way We Were - Try To Remember
TTITLE2=Licence To Kill
TTITLE3=Best Thing That Ever Happened To Me
TTITLE4=Midnight Train To Georgia
TTITLE5=Help Me Make It Through The Night
TTITLE6=Take Me In Your Arms And Love Me
TTITLE7=Come Back And Finish What You've Started
TTITLE8=The One And Only
TTITLE9=So Sad The Song
TTITLE10=The Look Of Love
TTITLE11=Part Time Love
TTITLE12=Neither One Of Us (Wants To Be The First To Say Goodbye)
TTITLE13=Bourgie', Bourgie'
TTITLE14=Taste Of Bitter Love
TTITLE15=Make Yours A Happy Home
TTITLE16=Love Overboard
TTITLE17=Save The Overtime (For Me)
TTITLE18=The Wind Beneath My Wings
EXTD=
EXTT0=
EXTT1=
EXTT2=
EXTT3=
EXTT4=
EXTT5=
EXTT6=
EXTT7=
EXTT8=
EXTT9=
EXTT10=
EXTT11=
EXTT12=
EXTT13=
EXTT14=
EXTT15=
EXTT16=
EXTT17=
EXTT18=
PLAYORDER=
